HIERARCHY
ROOT pelvis
{
	OFFSET 0.003123 -0.351407 0.012037
	CHANNELS 6 Xposition Yposition Zposition Zrotation Yrotation Xrotation 
	JOINT left_hip
	{
		OFFSET 0.058189 -0.092763 -0.026001
		CHANNELS 3 Zrotation Yrotation Xrotation
		JOINT left_knee
		{
			OFFSET 0.054695 -0.378753 -0.009396
			CHANNELS 3 Zrotation Yrotation Xrotation
			JOINT left_ankle
			{
				OFFSET -0.043453 -0.403059 -0.031876
				CHANNELS 3 Zrotation Yrotation Xrotation
				JOINT left_foot
				{
					OFFSET 0.047257 -0.057997 0.118216
					CHANNELS 3 Zrotation Yrotation Xrotation
					End Site
					{
						OFFSET 0.000000 0.000000 0.000000
					}
				}
			}
		}
	}
	JOINT right_hip
	{
		OFFSET -0.063267 -0.103908 -0.021250
		CHANNELS 3 Zrotation Yrotation Xrotation
		JOINT right_knee
		{
			OFFSET -0.044210 -0.362380 -0.016824
			CHANNELS 3 Zrotation Yrotation Xrotation
			JOINT right_ankle
			{
				OFFSET 0.015417 -0.410728 -0.020192
				CHANNELS 3 Zrotation Yrotation Xrotation
				JOINT right_foot
				{
					OFFSET -0.038812 -0.058328 0.119049
					CHANNELS 3 Zrotation Yrotation Xrotation
					End Site
					{
						OFFSET 0.000000 0.000000 0.000000
					}
				}
			}
		}
	}
	JOINT spine_1
	{
		OFFSET -0.002763 0.109891 -0.027618
		CHANNELS 3 Zrotation Yrotation Xrotation
		JOINT spine_2
		{
			OFFSET 0.009448 0.131853 -0.005940
			CHANNELS 3 Zrotation Yrotation Xrotation
			JOINT spine_3
			{
				OFFSET -0.011330 0.052235 0.028447
				CHANNELS 3 Zrotation Yrotation Xrotation
				JOINT neck
				{
					OFFSET -0.012164 0.165167 -0.031615
					CHANNELS 3 Zrotation Yrotation Xrotation
					JOINT head
					{
						OFFSET 0.024783 0.160452 0.020737
						CHANNELS 3 Zrotation Yrotation Xrotation
						End Site
						{
							OFFSET 0.000000 0.000000 0.000000
						}
					}
				}
				JOINT left_collar
				{
					OFFSET 0.046364 0.084944 -0.007220
					CHANNELS 3 Zrotation Yrotation Xrotation
					JOINT left_shoulder
					{
						OFFSET 0.119239 0.057728 -0.015461
						CHANNELS 3 Zrotation Yrotation Xrotation
						JOINT left_elbow
						{
							OFFSET 0.254123 -0.072151 -0.042459
							CHANNELS 3 Zrotation Yrotation Xrotation
							JOINT left_wrist
							{
								OFFSET 0.251987 0.023221 -0.002472
								CHANNELS 3 Zrotation Yrotation Xrotation
								JOINT left_index_1
								{
									OFFSET 0.101902 -0.008688 0.019351
									CHANNELS 3 Zrotation Yrotation Xrotation
									JOINT left_index_2
									{
										OFFSET 0.030149 -0.011154 0.001151
										CHANNELS 3 Zrotation Yrotation Xrotation
										JOINT left_index_3
										{
											OFFSET 0.006504 -0.021577 -0.002433
											CHANNELS 3 Zrotation Yrotation Xrotation
											End Site
											{
												OFFSET 0.000000 0.000000 0.000000
											}
										}
									}
								}
								JOINT left_middle_1
								{
									OFFSET 0.109398 -0.006328 -0.003981
									CHANNELS 3 Zrotation Yrotation Xrotation
									JOINT left_middle_2
									{
										OFFSET 0.026472 -0.015218 -0.004641
										CHANNELS 3 Zrotation Yrotation Xrotation
										JOINT left_middle_3
										{
											OFFSET 0.005022 -0.023347 -0.001911
											CHANNELS 3 Zrotation Yrotation Xrotation
											End Site
											{
												OFFSET 0.000000 0.000000 0.000000
											}
										}
									}
								}
								JOINT left_pinky_1
								{
									OFFSET 0.084047 -0.014539 -0.043750
									CHANNELS 3 Zrotation Yrotation Xrotation
									JOINT left_pinky_2
									{
										OFFSET 0.012124 -0.014448 -0.005375
										CHANNELS 3 Zrotation Yrotation Xrotation
										JOINT left_pinky_3
										{
											OFFSET 0.003798 -0.018853 0.000167
											CHANNELS 3 Zrotation Yrotation Xrotation
											End Site
											{
												OFFSET 0.000000 0.000000 0.000000
											}
										}
									}
								}
								JOINT left_ring_1
								{
									OFFSET 0.097444 -0.009268 -0.027345
									CHANNELS 3 Zrotation Yrotation Xrotation
									JOINT left_ring_2
									{
										OFFSET 0.023561 -0.016057 -0.001895
										CHANNELS 3 Zrotation Yrotation Xrotation
										JOINT left_ring_3
										{
											OFFSET 0.004257 -0.023548 0.000814
											CHANNELS 3 Zrotation Yrotation Xrotation
											End Site
											{
												OFFSET 0.000000 0.000000 0.000000
											}
										}
									}
								}
								JOINT left_thumb_1
								{
									OFFSET 0.040636 -0.017977 0.025611
									CHANNELS 3 Zrotation Yrotation Xrotation
									JOINT left_thumb_2
									{
										OFFSET 0.021637 -0.017639 0.011623
										CHANNELS 3 Zrotation Yrotation Xrotation
										JOINT left_thumb_3
										{
											OFFSET 0.024002 -0.008356 0.006548
											CHANNELS 3 Zrotation Yrotation Xrotation
											End Site
											{
												OFFSET 0.000000 0.000000 0.000000
											}
										}
									}
								}
							}
						}
					}
				}
				JOINT right_collar
				{
					OFFSET -0.047695 0.084339 -0.013400
					CHANNELS 3 Zrotation Yrotation Xrotation
					JOINT right_shoulder
					{
						OFFSET -0.102578 0.053524 -0.012669
						CHANNELS 3 Zrotation Yrotation Xrotation
						JOINT right_elbow
						{
							OFFSET -0.271150 -0.036492 -0.026467
							CHANNELS 3 Zrotation Yrotation Xrotation
							JOINT right_wrist
							{
								OFFSET -0.249267 -0.004533 -0.015325
								CHANNELS 3 Zrotation Yrotation Xrotation
								JOINT right_index_1
								{
									OFFSET -0.099881 -0.011783 0.019600
									CHANNELS 3 Zrotation Yrotation Xrotation
									JOINT right_index_2
									{
										OFFSET -0.030148 -0.011154 0.001151
										CHANNELS 3 Zrotation Yrotation Xrotation
										JOINT right_index_3
										{
											OFFSET -0.006505 -0.021577 -0.002432
											CHANNELS 3 Zrotation Yrotation Xrotation
											End Site
											{
												OFFSET 0.000000 0.000000 0.000000
											}
										}
									}
								}
								JOINT right_middle_1
								{
									OFFSET -0.107376 -0.009422 -0.003734
									CHANNELS 3 Zrotation Yrotation Xrotation
									JOINT right_middle_2
									{
										OFFSET -0.026472 -0.015218 -0.004641
										CHANNELS 3 Zrotation Yrotation Xrotation
										JOINT right_middle_3
										{
											OFFSET -0.005022 -0.023347 -0.001911
											CHANNELS 3 Zrotation Yrotation Xrotation
											End Site
											{
												OFFSET 0.000000 0.000000 0.000000
											}
										}
									}
								}
								JOINT right_pinky_1
								{
									OFFSET -0.082027 -0.017634 -0.043503
									CHANNELS 3 Zrotation Yrotation Xrotation
									JOINT right_pinky_2
									{
										OFFSET -0.012123 -0.014448 -0.005374
										CHANNELS 3 Zrotation Yrotation Xrotation
										JOINT right_pinky_3
										{
											OFFSET -0.003798 -0.018852 0.000167
											CHANNELS 3 Zrotation Yrotation Xrotation
											End Site
											{
												OFFSET 0.000000 0.000000 0.000000
											}
										}
									}
								}
								JOINT right_ring_1
								{
									OFFSET -0.095423 -0.012362 -0.027099
									CHANNELS 3 Zrotation Yrotation Xrotation
									JOINT right_ring_2
									{
										OFFSET -0.023561 -0.016057 -0.001895
										CHANNELS 3 Zrotation Yrotation Xrotation
										JOINT right_ring_3
										{
											OFFSET -0.004257 -0.023548 0.000816
											CHANNELS 3 Zrotation Yrotation Xrotation
											End Site
											{
												OFFSET 0.000000 0.000000 0.000000
											}
										}
									}
								}
								JOINT right_thumb_1
								{
									OFFSET -0.038613 -0.021074 0.025861
									CHANNELS 3 Zrotation Yrotation Xrotation
									JOINT right_thumb_2
									{
										OFFSET -0.021636 -0.017639 0.011623
										CHANNELS 3 Zrotation Yrotation Xrotation
										JOINT right_thumb_3
										{
											OFFSET -0.024004 -0.008353 0.006547
											CHANNELS 3 Zrotation Yrotation Xrotation
											End Site
											{
												OFFSET 0.000000 0.000000 0.000000
											}
										}
									}
								}
							}
						}
					}
				}
			}
		}
	}
}
MOTION
Frames: 4
Frame Time: 0.050000
0.025349 1.035870 0.004547 -0.903292 1.533892 -26.158981 2.802961 3.412423 29.927464 5.299204 -1.061500 4.047000 -12.703451 -6.671711 18.359041 0.000000 0.000000 0.000000 -2.672032 -2.552721 24.924383 -3.403828 0.732084 8.026605 9.657200 4.565747 18.774139 0.000000 0.000000 0.000000 -2.018289 -0.964392 15.421280 4.717543 -0.145583 14.903630 1.321260 3.699466 -4.777608 0.734427 -3.701413 20.083638 0.000000 0.000000 0.000000 -23.196054 -4.874841 -0.783384 -28.474736 5.929394 -4.088322 -24.176924 -17.083852 5.040827 -4.300210 0.426459 11.079082 -17.286496 3.262356 0.806699 13.079676 -2.634050 -2.997485 0.000000 0.000000 0.000000 -8.972713 -3.473448 -3.433366 -6.835512 -0.134618 -4.335000 0.000000 0.000000 0.000000 26.629794 -14.799308 -8.970956 2.442973 -0.309505 -1.986614 0.000000 0.000000 0.000000 0.310854 -3.636842 -2.241506 -13.085834 -1.545618 -8.354476 0.000000 0.000000 0.000000 14.732428 16.743645 12.624411 -12.686702 -4.893558 2.601318 0.000000 0.000000 0.000000 21.677195 11.121183 6.567282 30.261526 4.861869 -2.024995 16.570176 12.820429 0.647024 6.251573 2.863328 0.863395 27.072167 -5.602789 1.621275 24.104605 -10.428153 12.340148 0.000000 0.000000 0.000000 33.550076 -2.544520 -4.693922 38.762492 -1.740852 -3.378503 0.000000 0.000000 0.000000 1.653061 9.413469 -12.275067 43.272569 -0.111188 0.255712 0.000000 0.000000 0.000000 27.571894 2.294315 -3.010480 46.790527 0.234830 1.955907 0.000000 0.000000 0.000000 -19.335315 -25.165111 20.640601 9.644234 10.696651 -0.072046 0.000000 0.000000 0.000000 
0.023465 1.035870 0.017746 -1.046730 4.037870 -29.281478 3.447418 3.169744 32.083222 6.128897 -1.149161 4.075215 -13.447728 -6.432988 19.369597 0.000000 0.000000 0.000000 -1.755405 -3.561650 29.510675 -2.864722 0.578013 6.606339 10.927415 5.245180 21.298751 0.000000 0.000000 0.000000 -4.864419 -0.861918 17.213361 5.946263 -0.836944 18.244698 1.893549 7.597706 -3.269508 2.959054 -4.538604 19.327760 0.000000 0.000000 0.000000 -22.244250 -7.433823 0.189350 -27.153821 -1.903712 -4.130148 -29.662875 -14.017150 4.654441 -6.550419 -1.366400 16.322756 -22.920669 5.084285 0.441729 5.233328 -3.798452 -8.313395 0.000000 0.000000 0.000000 -22.607539 -4.550651 -6.684084 -3.799051 -1.244119 -8.225373 0.000000 0.000000 0.000000 24.549570 -23.093041 -20.857180 -10.324094 -1.000154 -11.968425 0.000000 0.000000 0.000000 -11.131637 -8.728491 -5.626219 -16.312874 -1.353821 -13.792170 0.000000 0.000000 0.000000 5.817466 14.838022 13.810005 -6.215473 -6.128743 0.385075 0.000000 0.000000 0.000000 20.592287 8.249091 5.262271 29.117466 6.398695 -1.801624 21.759315 15.940955 1.564657 5.530055 3.733953 -0.098288 25.884532 -6.878526 1.935822 23.393602 -7.085176 7.843472 0.000000 0.000000 0.000000 34.932875 -1.262956 -4.936181 34.537826 -3.143430 0.067116 0.000000 0.000000 0.000000 -4.399403 11.024889 -13.383789 41.371883 -3.992089 5.848023 0.000000 0.000000 0.000000 27.516056 2.609339 -2.862155 54.126356 5.012683 -3.376596 0.000000 0.000000 0.000000 -16.855835 -28.081956 24.591887 9.269980 8.536683 0.187233 0.000000 0.000000 0.000000 
0.025114 1.028778 0.026985 -1.412505 3.934841 -26.541478 4.388913 2.626095 28.723985 5.588097 -1.231848 4.982268 -14.438521 -9.071011 18.205624 0.000000 0.000000 0.000000 -0.618620 -3.311416 25.671321 -3.301943 0.640993 6.835392 10.429463 5.772113 19.394431 0.000000 0.000000 0.000000 -4.806169 -0.885049 18.302309 8.566939 -2.921900 19.396861 -3.488391 8.676460 -5.658981 4.108702 -5.104805 19.732280 0.000000 0.000000 0.000000 -21.438734 -12.264908 3.397281 -29.532936 -3.495361 -4.375088 -27.339866 -14.552739 4.539082 -5.839266 -2.772648 17.391199 -34.470535 7.553312 -0.699466 -8.799182 1.761231 -0.394622 0.000000 0.000000 0.000000 -38.586807 7.151405 -7.651122 -17.549325 -2.082193 -14.215890 0.000000 0.000000 0.000000 6.532407 -19.075413 -7.896139 -58.659310 -29.123158 -46.593770 0.000000 0.000000 0.000000 -31.877764 0.805493 -5.016974 -49.516153 -4.007769 -15.154229 0.000000 0.000000 0.000000 2.082098 7.743810 7.614002 4.732335 10.862332 1.480110 0.000000 0.000000 0.000000 22.089354 9.390594 6.766673 31.019368 8.032263 -1.548801 18.865525 15.573276 1.274058 4.460304 8.820320 -0.888489 22.083492 -3.542372 1.498260 11.272207 -2.010621 1.929391 0.000000 0.000000 0.000000 28.722653 4.395936 -5.556712 29.606670 -0.800266 -3.218734 0.000000 0.000000 0.000000 -8.309492 14.935950 -18.481780 41.071326 6.021293 -9.254936 0.000000 0.000000 0.000000 21.493968 9.136110 -5.498710 45.186515 8.554961 -9.671758 0.000000 0.000000 0.000000 -16.990271 -22.168628 15.671540 13.749856 2.285467 3.035674 0.000000 0.000000 0.000000 
0.013130 1.027489 0.023026 -0.595205 4.381291 -23.224897 4.250946 2.385227 25.918723 5.036852 -0.842487 2.998379 -15.118045 -9.087261 19.240919 0.000000 0.000000 0.000000 -0.231246 -3.105195 23.400652 -4.196260 0.589001 4.626791 8.304511 4.641390 16.283236 0.000000 0.000000 0.000000 -4.186999 -0.746295 14.254965 8.203072 -3.214746 15.257926 -4.281955 8.429683 -1.145209 6.277062 -5.968165 20.229228 0.000000 0.000000 0.000000 -22.485971 -11.921813 3.194871 -30.156788 -6.342711 -4.708281 -25.822914 -11.703274 3.477076 -7.969237 -3.494629 17.034034 -26.814724 12.825232 1.647134 -26.044867 9.613362 3.574926 0.000000 0.000000 0.000000 -34.557366 13.391897 -4.784668 -45.745755 -0.108558 -13.627784 0.000000 0.000000 0.000000 3.637730 -21.213415 -10.058086 -83.030296 -32.208980 -28.777721 0.000000 0.000000 0.000000 -29.850552 3.924380 -3.766691 -68.390541 -5.630109 -11.697218 0.000000 0.000000 0.000000 5.958460 8.945991 8.319468 2.149032 11.130811 2.005422 0.000000 0.000000 0.000000 23.231509 8.340810 6.077268 31.912757 11.004278 -1.399404 17.953078 12.194269 0.690607 1.571912 9.363049 -3.373963 20.966756 0.659011 0.906809 2.629119 1.250005 -4.881199 0.000000 0.000000 0.000000 23.244202 8.627079 -6.216441 24.022707 3.596388 -11.557468 0.000000 0.000000 0.000000 -11.493758 14.688228 -18.049113 26.133957 5.339135 -10.651657 0.000000 0.000000 0.000000 16.434461 11.414110 -6.653382 34.216472 7.761483 -10.701538 0.000000 0.000000 0.000000 -12.610960 -17.518512 10.544062 11.880952 2.869509 2.320322 0.000000 0.000000 0.000000 
